<svg id="logoImage" width="153px" height="191px" viewBox="0 0 153 191">
    <g stroke="none" stroke-width="1" fill="none" fill-rule="evenodd">
        <g transform="translate(76.706055, 94.703125) rotate(3.000000) translate(-76.706055, -94.703125) translate(-4.293945, -3.296875)">
            <polygon fill="#9013FE" fill-rule="nonzero" points="139.5 0.517578125 161.542969 189.136719 43.0183105 195.943115 34.1269531 102.642578 10.3007813 102.642578 0.40234375 8.61132812"></polygon>
            <polygon fill="#A846FF" fill-rule="nonzero" points="26.0061035 7.17138672 34.0175781 84.5825498 59.8046875 84.5825498 68.9390869 178.844116 159.759766 173.533447 139.505249 0.54675293"></polygon>
            <polygon fill="#C17BFF" fill-rule="nonzero" points="10.3944092 102.588135 34.1134033 84.5601807 59.8120117 84.6014404 34.1486816 102.599243"></polygon>
            <polygon fill="#C17BFF" fill-rule="nonzero" points="43.0727539 195.944092 68.9145508 178.842285 159.717041 173.573975 161.596313 189.125488"></polygon>
            <g id="text" transform="translate(78.000000, 73.000000)" fill="#FFFFFF">
                <path d="M49.9792301,35.4908773 C49.9495178,35.8247087 49.8095694,36.0540195 49.549549,36.1279904 C49.2329863,36.2180367 22.06379,36.0574641 21.4822957,35.967849 C21.2503093,35.9321051 21.077644,35.4233994 21.3762924,34.6293445 C21.699458,34.1521082 24.1185283,30.9515069 24.5334981,30.2725076 C24.9885051,28.7666706 24.2506237,28.0706788 22.8820213,28.3802811 C21.0965427,29.192891 7.50635025,35.8678185 6.06665315,36.6415476 C5.19124062,37.2268241 5.13372347,38.2493629 6.22139998,38.921229 C7.08017221,39.6412553 21.753053,46.3427519 23.0533649,47.0101829 C24.1388281,47.5673371 25.026768,46.6119432 24.8190091,45.5998818 C24.5921694,44.8079789 22.5033174,42.2013606 21.2830781,40.3369366 C21.187983,40.2443528 21.0727576,39.781078 21.3650415,39.6494358 C21.7692978,39.50774 41.3478291,39.702968 51.4657267,39.7670046 C53.2134475,39.7218188 53.5481505,38.8658913 53.539436,37.9713181 C53.520338,36.0121558 53.5986403,27.8042088 53.5947816,26.5548368 C53.2479174,24.8325134 50.3886391,24.9519514 50.1254616,26.4475216 C49.9845448,27.5342903 50.1542128,32.951037 49.9792324,35.4908773 L49.9792301,35.4908773 Z" id="path2998" transform="translate(29.501168, 36.234574) rotate(-5.000000) translate(-29.501168, -36.234574) "></path>
                <path d="M4.38352136,5.76411968 L4.80894729,11.8479939 L11.2063009,4.1689689 C11.5134411,3.79859305 11.7776047,3.52241567 11.9987995,3.34042847 C12.2199943,3.15844128 12.5239149,3.05393046 12.9105703,3.02689288 C13.4155897,2.99157849 13.8342849,3.11097658 14.1666685,3.38509074 C14.4990521,3.6592049 14.6801395,4.00931176 14.709936,4.43542181 C14.7458022,4.94833207 14.5170499,5.47577382 14.0236721,6.0177629 L10.0338221,10.3645796 L15.4510313,17.0747194 C15.8324429,17.5396782 16.1227736,17.9495459 16.3220321,18.3043347 C16.5212906,18.6591234 16.6330575,19.010113 16.6573362,19.3573137 C16.6843737,19.7439692 16.5559263,20.0899503 16.2719899,20.3952675 C15.9880536,20.7005846 15.5856909,20.8714497 15.0648897,20.9078676 C14.5756522,20.9420784 14.1698553,20.8653901 13.8474868,20.6778002 C13.5251183,20.4902104 13.2452714,20.2302681 13.0079377,19.8979655 C12.770604,19.565663 12.5591535,19.2632734 12.3735797,18.9907875 L7.77208186,12.8896832 L5.08870208,15.8486739 L5.33948819,19.4350823 C5.39025263,20.1610476 5.26220457,20.7111826 4.95534017,21.0855039 C4.64847578,21.4598253 4.2346492,21.6651918 3.71384802,21.7016098 C3.4139928,21.7225777 3.12046049,21.6638096 2.8332423,21.5253036 C2.54602411,21.3867976 2.31807424,21.1886438 2.14938586,20.9308362 C2.02346283,20.7176153 1.93845814,20.4658541 1.89436923,20.1755452 C1.85028031,19.8852363 1.80892392,19.4639057 1.7702988,18.9115408 L0.868130973,6.00993972 C0.81847011,5.2997563 0.937068491,4.75622908 1.22392967,4.37934177 C1.51079086,4.00245445 1.92250679,3.79525313 2.45908982,3.75773159 C2.98778193,3.72076184 3.42813538,3.86639831 3.78016339,4.19464539 C4.13219139,4.52289246 4.33330871,5.04604533 4.38352136,5.76411968 Z M28.495005,19.6713873 L23.1923286,20.0421865 C22.4269086,20.0957099 21.868469,19.9622955 21.5169927,19.6419394 C21.1655165,19.3215832 20.9635715,18.7865942 20.9111517,18.0369561 L19.9990518,4.99331904 C19.9455284,4.22789912 20.0747215,3.66578992 20.3866349,3.30697456 C20.6985484,2.9481592 21.2293161,2.74254471 21.9789542,2.69012491 L27.6012116,2.29697837 C28.4297589,2.2390407 29.151409,2.24011906 29.7661836,2.30021348 C30.3809583,2.36030791 30.9392185,2.51950536 31.4409812,2.77781063 C31.8684148,2.99373643 32.2530493,3.27806882 32.5948963,3.63081636 C32.9367433,3.9835639 33.2063814,4.38100209 33.4038186,4.82314285 C33.6012558,5.26528362 33.7176299,5.73885656 33.7529443,6.24387588 C33.8743375,7.97987982 33.095185,9.3109957 31.4154634,10.2372635 C33.7467057,10.8037622 34.985696,12.1364849 35.1324715,14.2354714 C35.2003413,15.2060555 35.0128904,16.0973435 34.570113,16.9093625 C34.1273357,17.7213814 33.4967589,18.3423389 32.6783637,18.7722537 C32.1651216,19.0301694 31.568427,19.2284999 30.8882619,19.3672511 C30.2080968,19.5060022 29.4103525,19.6073799 28.495005,19.6713873 Z M27.695788,11.9841445 L24.0383616,12.2398967 L24.3926074,17.3058465 L28.168397,17.0418175 C30.5435661,16.8757295 31.6712647,15.936534 31.5515269,14.2242029 C31.4902785,13.34831 31.1381187,12.7346193 30.495037,12.3831124 C29.8519554,12.0316054 28.9188817,11.8986175 27.695788,11.9841445 Z M23.5483769,5.23278858 L23.8620665,9.71875813 L27.0815486,9.49363001 C27.9574415,9.43238161 28.6282846,9.30221306 29.0940982,9.10312046 C29.5599117,8.90402786 29.9027904,8.56287573 30.1227447,8.07965385 C30.2968428,7.73444023 30.3695442,7.35667499 30.3408513,6.94634678 C30.2796029,6.07045389 29.9272223,5.51030203 29.2836988,5.2658744 C28.6401753,5.02144677 27.6792629,4.94392889 26.4009327,5.03331844 L23.5483769,5.23278858 Z M52.5539134,12.755573 C52.6273011,13.8050662 52.4229785,14.7669163 51.9409395,15.641152 C51.4589004,16.5153877 50.7136445,17.2256407 49.7051494,17.7719322 C48.6966543,18.3182238 47.4782961,18.6413014 46.0500384,18.741175 C44.3377072,18.8609128 42.9026295,18.6361581 41.7447623,18.0669041 C40.9231141,17.6565182 40.2385333,17.0799491 39.6909993,16.3371795 C39.1434653,15.5944099 38.8440447,14.856108 38.7927285,14.1222518 C38.762932,13.6961418 38.8853648,13.320846 39.1600308,12.9963533 C39.4346967,12.6718606 39.8008611,12.4936151 40.2585349,12.4616114 C40.6294084,12.4356774 40.9513448,12.5321063 41.2243535,12.750901 C41.4973623,12.9696957 41.7408864,13.3055249 41.9549331,13.7583984 C42.2145042,14.2953133 42.4854802,14.7402343 42.7678694,15.0931747 C43.0502585,15.4461152 43.4326444,15.7266402 43.9150386,15.934758 C44.3974329,16.1428758 45.0173852,16.2204477 45.7749141,16.1674762 C46.8165165,16.0946402 47.6458385,15.7928196 48.2629051,15.2620051 C48.8799716,14.7311906 49.1631184,14.1028102 49.112354,13.3768449 C49.0720735,12.8008072 48.8638101,12.3455539 48.4875575,12.0110713 C48.111305,11.6765886 47.6384091,11.4341103 47.0688559,11.2836291 C46.4993026,11.1331479 45.7415236,10.9839374 44.7954959,10.8359933 C43.5283133,10.6312114 42.4608895,10.3629067 41.5931923,10.0310712 C40.7254951,9.69923565 40.0214766,9.2132314 39.4811159,8.57304386 C38.9407551,7.93285631 38.6355408,7.111701 38.5654638,6.10955327 C38.4986976,5.15475111 38.699778,4.28828048 39.1687112,3.51011538 C39.6376443,2.73195028 40.3513505,2.10914445 41.3098511,1.64167922 C42.2683517,1.17421399 43.4143682,0.893859543 44.7479348,0.800607479 C45.81321,0.726116184 46.7437042,0.79386702 47.5394454,1.00386202 C48.3351865,1.21385701 49.0048143,1.51989006 49.5483488,1.92197032 C50.0918832,2.32405059 50.4988378,2.75748069 50.7692246,3.22227361 C51.0396114,3.68706653 51.1908044,4.14829296 51.2228081,4.60596672 C51.2520528,5.02418585 51.1304476,5.41131782 50.8579888,5.76737424 C50.58553,6.12343066 50.22836,6.31690602 49.7864681,6.34780611 C49.3840308,6.37594727 49.0712268,6.2967209 48.8480467,6.11012463 C48.6248665,5.92352835 48.374969,5.60995074 48.0983466,5.16938239 C47.7369112,4.53650694 47.3224247,4.05206248 46.8548746,3.71603447 C46.3873246,3.38000646 45.664323,3.24620528 44.685848,3.31462691 C43.7783914,3.37808246 43.0604514,3.62850289 42.5320063,4.06589571 C42.0035612,4.50328853 41.7589308,5.00210536 41.7981077,5.56236118 C41.8223863,5.90956196 41.9380436,6.20279134 42.1450831,6.44205811 C42.3521225,6.68132487 42.6276931,6.8801134 42.9718032,7.03842965 C43.3159132,7.1967459 43.6612046,7.31532985 44.0076877,7.39418504 C44.3541708,7.47304023 44.924902,7.58378928 45.7198984,7.72643551 C46.7143752,7.88685075 47.6177754,8.07741943 48.4301261,8.29814724 C49.2424768,8.51887505 49.9405916,8.80705731 50.5244913,9.16270265 C51.108391,9.51834798 51.5772855,9.98709378 51.9311889,10.5689541 C52.2850922,11.1508144 52.492665,11.8796801 52.5539134,12.755573 Z" id="Combined-Shape" fill-rule="nonzero"></path>
            </g>
        </g>
    </g>
</svg>
