<svg id="logoText" width="104px" height="43px" viewBox="0 0 104 43">
    <title>Keyboard Simulator</title>
    <g stroke="none" stroke-width="1" fill="none" fill-rule="evenodd">
        <path d="M4.37890625,2.63671875 L4.37890625,8.66015625 L11.2109375,1.53515625 C11.5390641,1.19140453 11.8183582,0.93750082 12.0488281,0.7734375 C12.279298,0.60937418 12.5859356,0.52734375 12.96875,0.52734375 C13.4687525,0.52734375 13.8730453,0.67382666 14.1816406,0.966796875 C14.4902359,1.25976709 14.6445312,1.61718539 14.6445312,2.0390625 C14.6445312,2.54687754 14.3828151,3.05077875 13.859375,3.55078125 L9.62890625,7.55859375 L14.5039062,14.5429688 C14.847658,15.0273462 15.1054679,15.4511701 15.2773438,15.8144531 C15.4492196,16.1777362 15.5351562,16.5312483 15.5351562,16.875 C15.5351562,17.2578144 15.3847671,17.5898423 15.0839844,17.8710938 C14.7832016,18.1523452 14.3750026,18.2929688 13.859375,18.2929688 C13.3749976,18.2929688 12.9804703,18.1894542 12.6757812,17.9824219 C12.3710922,17.7753896 12.1132823,17.5000017 11.9023438,17.15625 C11.6914052,16.8124983 11.5039071,16.5000014 11.3398438,16.21875 L7.2265625,9.890625 L4.37890625,12.6210938 L4.37890625,16.171875 C4.37890625,16.8906286 4.21484539,17.4238264 3.88671875,17.7714844 C3.55859211,18.1191424 3.13672133,18.2929688 2.62109375,18.2929688 C2.32421727,18.2929688 2.03906387,18.2148445 1.765625,18.0585938 C1.49218613,17.902343 1.28125074,17.6914076 1.1328125,17.4257812 C1.02343695,17.2070302 0.957031367,16.9531264 0.93359375,16.6640625 C0.910156133,16.3749986 0.8984375,15.957034 0.8984375,15.4101562 L0.8984375,2.63671875 C0.8984375,1.93359023 1.05273283,1.40625176 1.36132812,1.0546875 C1.66992342,0.703123242 2.08984109,0.52734375 2.62109375,0.52734375 C3.14453387,0.52734375 3.56835775,0.701170137 3.89257812,1.04882812 C4.2167985,1.39648611 4.37890625,1.9257777 4.37890625,2.63671875 Z M25.5764508,12.5742188 L19.3186383,12.5742188 C19.3264509,13.3007849 19.4729338,13.9414035 19.7580914,14.4960938 C20.0432491,15.050784 20.4221516,15.4687486 20.8948102,15.75 C21.3674688,16.0312514 21.888948,16.171875 22.4592633,16.171875 C22.8420777,16.171875 23.1916836,16.1269536 23.5080914,16.0371094 C23.8244993,15.9472652 24.1311368,15.8066416 24.4280133,15.6152344 C24.7248898,15.4238272 24.9983246,15.2187511 25.2483258,15 C25.4983271,14.7812489 25.8225426,14.4843769 26.2209821,14.109375 C26.3850454,13.9687493 26.6194181,13.8984375 26.9241071,13.8984375 C27.2522337,13.8984375 27.5178561,13.9882804 27.7209821,14.1679688 C27.9241081,14.3476571 28.0256696,14.6015609 28.0256696,14.9296875 C28.0256696,15.2187514 27.9123895,15.5566387 27.6858258,15.9433594 C27.4592622,16.3300801 27.1174687,16.7011701 26.6604352,17.0566406 C26.2034017,17.4121112 25.6291887,17.7070301 24.9377789,17.9414062 C24.2463692,18.1757824 23.4514553,18.2929688 22.5530133,18.2929688 C20.4983156,18.2929688 18.9006753,17.7070371 17.7600446,16.5351562 C16.6194139,15.3632754 16.0491071,13.7734475 16.0491071,11.765625 C16.0491071,10.8203078 16.1897307,9.94336342 16.4709821,9.13476562 C16.7522335,8.32616783 17.1623856,7.63281539 17.7014508,7.0546875 C18.240516,6.47655961 18.9045719,6.03320467 19.6936383,5.72460938 C20.4827048,5.41601408 21.357696,5.26171875 22.3186383,5.26171875 C23.5686446,5.26171875 24.6408995,5.52538799 25.5354352,6.05273438 C26.4299709,6.58008076 27.0998861,7.26171457 27.5452008,8.09765625 C27.9905156,8.93359793 28.2131696,9.78515191 28.2131696,10.6523438 C28.2131696,11.4570353 27.9827031,11.9785144 27.5217633,12.2167969 C27.0608235,12.4550793 26.4123925,12.5742188 25.5764508,12.5742188 Z M19.3186383,10.7578125 L25.1194196,10.7578125 C25.0412942,9.66405703 24.7463753,8.84570584 24.2346539,8.30273438 C23.7229326,7.75976291 23.0491113,7.48828125 22.2131696,7.48828125 C21.4162906,7.48828125 20.7620003,7.76366912 20.2502789,8.31445312 C19.7385576,8.86523713 19.4280139,9.67968211 19.3186383,10.7578125 Z M32.3833704,18.6914062 L32.6763391,17.9765625 L28.7388391,8.0625 C28.4966504,7.49218465 28.3755579,7.07812629 28.3755579,6.8203125 C28.3755579,6.54687363 28.4458697,6.29296992 28.5864954,6.05859375 C28.7271211,5.82421758 28.9204785,5.63671945 29.1665735,5.49609375 C29.4126685,5.35546805 29.6685253,5.28515625 29.9341516,5.28515625 C30.3950915,5.28515625 30.7427442,5.43163916 30.9771204,5.72460938 C31.2114966,6.01757959 31.4185258,6.43749727 31.5982141,6.984375 L34.3052454,14.859375 L36.8716516,7.53515625 C37.0747777,6.94140328 37.2583696,6.47656418 37.4224329,6.140625 C37.5864962,5.80468582 37.7603226,5.57812559 37.9439173,5.4609375 C38.1275119,5.34374941 38.387275,5.28515625 38.7232141,5.28515625 C38.9654029,5.28515625 39.1978224,5.34960873 39.4204798,5.47851562 C39.6431371,5.60742252 39.8150104,5.78124891 39.9361048,6 C40.0571991,6.21875109 40.1177454,6.44921754 40.1177454,6.69140625 C40.0864952,6.83984449 40.0357145,7.05077988 39.9654016,7.32421875 C39.8950888,7.59765762 39.8091522,7.87499859 39.7075891,8.15625 L35.5357141,19.078125 C35.1763374,20.0390673 34.8247784,20.792966 34.4810266,21.3398438 C34.1372749,21.8867215 33.6822014,22.3066392 33.1157923,22.5996094 C32.5493832,22.8925796 31.785719,23.0390625 30.8247766,23.0390625 C29.887272,23.0390625 29.184154,22.937501 28.7154016,22.734375 C28.2466493,22.531249 28.0122766,22.1601589 28.0122766,21.6210938 C28.0122766,21.2539044 28.1236037,20.9707041 28.346261,20.7714844 C28.5689184,20.5722646 28.8989932,20.4726562 29.3364954,20.4726562 C29.5083713,20.4726562 29.6763383,20.4960935 29.8404016,20.5429688 C30.0435277,20.589844 30.2193072,20.6132812 30.3677454,20.6132812 C30.7349347,20.6132812 31.0239943,20.5585943 31.2349329,20.4492188 C31.4458715,20.3398432 31.6353227,20.150392 31.8032923,19.8808594 C31.9712619,19.6113268 32.1646193,19.2148464 32.3833704,18.6914062 Z M44.53404,2.35546875 L44.53404,7.2421875 C45.1356055,6.61718438 45.7488806,6.13867354 46.3738837,5.80664062 C46.9988868,5.47460771 47.7723166,5.30859375 48.6941962,5.30859375 C49.7567015,5.30859375 50.6883328,5.56054436 51.4891181,6.06445312 C52.2899034,6.56836189 52.9109909,7.29882334 53.3523993,8.25585938 C53.7938078,9.21289541 54.0145087,10.3476497 54.0145087,11.6601562 C54.0145087,12.6289111 53.8914631,13.5175741 53.6453681,14.3261719 C53.3992731,15.1347697 53.0418548,15.8359345 52.5731025,16.4296875 C52.1043501,17.0234405 51.5359964,17.4824203 50.8680243,17.8066406 C50.2000523,18.130861 49.4637315,18.2929688 48.65904,18.2929688 C48.16685,18.2929688 47.703964,18.2343756 47.2703681,18.1171875 C46.8367722,17.9999994 46.4676352,17.8457041 46.1629462,17.6542969 C45.8582572,17.4628897 45.5984942,17.265626 45.3836493,17.0625 C45.1688045,16.859374 44.8856042,16.5546895 44.53404,16.1484375 L44.53404,16.4648438 C44.53404,17.0664093 44.3895102,17.5214828 44.1004462,17.8300781 C43.8113823,18.1386734 43.4441985,18.2929688 42.9988837,18.2929688 C42.5457565,18.2929688 42.1844319,18.1386734 41.9148993,17.8300781 C41.6453668,17.5214828 41.5106025,17.0664093 41.5106025,16.4648438 L41.5106025,2.49609375 C41.5106025,1.84765301 41.6414605,1.35742354 41.9031806,1.02539062 C42.1649007,0.693357715 42.5301314,0.52734375 42.9988837,0.52734375 C43.4910737,0.52734375 43.8699761,0.685545293 44.1356025,1.00195312 C44.4012288,1.31836096 44.53404,1.76952832 44.53404,2.35546875 Z M44.6863837,11.859375 C44.6863837,13.1328189 44.9773964,14.1113247 45.5594306,14.7949219 C46.1414648,15.478519 46.905129,15.8203125 47.8504462,15.8203125 C48.6551377,15.8203125 49.3484902,15.4707066 49.9305243,14.7714844 C50.5125585,14.0722621 50.8035712,13.070319 50.8035712,11.765625 C50.8035712,10.9218708 50.6824787,10.1953155 50.44029,9.5859375 C50.1981013,8.97655945 49.8543547,8.50586104 49.40904,8.17382812 C48.9637252,7.84179521 48.4441992,7.67578125 47.8504462,7.67578125 C47.2410682,7.67578125 46.6981049,7.84179521 46.22154,8.17382812 C45.7449751,8.50586104 45.3699788,8.98632498 45.09654,9.61523438 C44.8231011,10.2441438 44.6863837,10.9921832 44.6863837,11.859375 Z M67.7003345,11.7890625 C67.7003345,12.7421923 67.5518985,13.6210897 67.255022,14.4257812 C66.9581456,15.2304728 66.5284624,15.9218721 65.9659595,16.5 C65.4034567,17.0781279 64.7315885,17.5214828 63.9503345,17.8300781 C63.1690806,18.1386734 62.2901832,18.2929688 61.3136158,18.2929688 C60.344861,18.2929688 59.4737759,18.1367203 58.7003345,17.8242188 C57.9268932,17.5117172 57.256978,17.064456 56.6905689,16.4824219 C56.1241598,15.9003877 55.6944766,15.2128946 55.4015064,14.4199219 C55.1085362,13.6269492 54.9620533,12.7500048 54.9620533,11.7890625 C54.9620533,10.8203077 55.1104893,9.93359777 55.4073658,9.12890625 C55.7042423,8.32421473 56.1300193,7.6367216 56.6847095,7.06640625 C57.2393998,6.4960909 57.9112681,6.05664217 58.7003345,5.74804688 C59.489401,5.43945158 60.360486,5.28515625 61.3136158,5.28515625 C62.2823706,5.28515625 63.1612681,5.44140469 63.9503345,5.75390625 C64.739401,6.06640781 65.4151755,6.51171586 65.9776783,7.08984375 C66.5401811,7.66797164 66.9679112,8.35546477 67.2608814,9.15234375 C67.5538516,9.94922273 67.7003345,10.8281202 67.7003345,11.7890625 Z M64.489397,11.7890625 C64.489397,10.4843685 64.2022905,9.46875363 63.6280689,8.7421875 C63.0538473,8.01562137 62.2823706,7.65234375 61.3136158,7.65234375 C60.6886127,7.65234375 60.1378369,7.8144515 59.661272,8.13867188 C59.1847072,8.46289225 58.8175233,8.94140309 58.5597095,9.57421875 C58.3018958,10.2070344 58.1729908,10.9453083 58.1729908,11.7890625 C58.1729908,12.6250042 58.2999427,13.3554656 58.5538502,13.9804688 C58.8077577,14.6054719 59.1710353,15.0839827 59.6436939,15.4160156 C60.1163525,15.7480485 60.6729876,15.9140625 61.3136158,15.9140625 C62.2823706,15.9140625 63.0538473,15.5488318 63.6280689,14.8183594 C64.2022905,14.087887 64.489397,13.0781314 64.489397,11.7890625 Z M77.4486604,16.4882812 C76.675219,17.0898468 75.9271796,17.5410141 75.2045197,17.8417969 C74.4818599,18.1425796 73.6713211,18.2929688 72.7728791,18.2929688 C71.9525625,18.2929688 71.2318666,18.130861 70.6107697,17.8066406 C69.9896729,17.4824203 69.5111621,17.0429715 69.1752229,16.4882812 C68.8392837,15.933591 68.6713166,15.3320345 68.6713166,14.6835938 C68.6713166,13.8085894 68.9486576,13.0625031 69.5033479,12.4453125 C70.0580381,11.8281219 70.8197493,11.4140636 71.7885041,11.203125 C71.9916301,11.1562498 72.4955314,11.0507821 73.3002229,10.8867188 C74.1049144,10.7226554 74.7943606,10.5722663 75.3685822,10.4355469 C75.9428039,10.2988274 76.5658445,10.1328135 77.2377229,9.9375 C77.1986602,9.09374578 77.02874,8.47461135 76.7279572,8.08007812 C76.4271745,7.6855449 75.8041339,7.48828125 74.8588166,7.48828125 C74.0463126,7.48828125 73.4349905,7.60156137 73.0248322,7.828125 C72.6146739,8.05468863 72.263115,8.39452898 71.9701447,8.84765625 C71.6771745,9.30078352 71.4701454,9.59960865 71.349051,9.74414062 C71.2279566,9.8886726 70.9681936,9.9609375 70.5697541,9.9609375 C70.2103773,9.9609375 69.8998336,9.84570428 69.6381135,9.61523438 C69.3763934,9.38476447 69.2455354,9.08984555 69.2455354,8.73046875 C69.2455354,8.16796594 69.4447521,7.62109641 69.8431916,7.08984375 C70.2416311,6.55859109 70.8627187,6.12109547 71.7064729,5.77734375 C72.5502271,5.43359203 73.6009978,5.26171875 74.8588166,5.26171875 C76.2650737,5.26171875 77.3705314,5.42773271 78.1752229,5.75976562 C78.9799144,6.09179854 79.5482681,6.61718391 79.880301,7.3359375 C80.2123339,8.05469109 80.3783479,9.00780656 80.3783479,10.1953125 C80.3783479,10.9453162 80.3763948,11.5820286 80.3724885,12.1054688 C80.3685822,12.6289089 80.3627229,13.2109343 80.3549104,13.8515625 C80.3549104,14.453128 80.4545188,15.0800749 80.6537385,15.7324219 C80.8529582,16.3847689 80.9525666,16.8046866 80.9525666,16.9921875 C80.9525666,17.3203141 80.7982713,17.6191393 80.489676,17.8886719 C80.1810807,18.1582045 79.8314748,18.2929688 79.4408479,18.2929688 C79.1127212,18.2929688 78.7885057,18.1386734 78.4681916,17.8300781 C78.1478775,17.5214828 77.8080372,17.0742217 77.4486604,16.4882812 Z M77.2377229,11.859375 C76.7689705,12.0312509 76.0873367,12.2128897 75.192801,12.4042969 C74.2982653,12.5957041 73.6791308,12.7363277 73.3353791,12.8261719 C72.9916274,12.9160161 72.6635057,13.0917956 72.3510041,13.3535156 C72.0385026,13.6152357 71.8822541,13.9804664 71.8822541,14.4492188 C71.8822541,14.9335962 72.065846,15.3457014 72.4330354,15.6855469 C72.8002247,16.0253923 73.2806887,16.1953125 73.8744416,16.1953125 C74.5072573,16.1953125 75.0912358,16.056642 75.6263947,15.7792969 C76.1615537,15.5019517 76.5541279,15.1445334 76.8041291,14.7070312 C77.0931931,14.2226538 77.2377229,13.4257868 77.2377229,12.3164062 L77.2377229,11.859375 Z M85.9430799,13.6757812 L85.9430799,16.3476562 C85.9430799,16.996097 85.7907377,17.4824203 85.4860487,17.8066406 C85.1813597,18.130861 84.7946448,18.2929688 84.3258924,18.2929688 C83.8649526,18.2929688 83.4860502,18.1289079 83.1891737,17.8007812 C82.8922972,17.4726546 82.7438612,16.9882845 82.7438612,16.3476562 L82.7438612,7.44140625 C82.7438612,6.00389906 83.2633873,5.28515625 84.3024549,5.28515625 C84.8337076,5.28515625 85.2165163,5.45312332 85.4508924,5.7890625 C85.6852686,6.12500168 85.8141736,6.62109047 85.8376112,7.27734375 C86.2204256,6.62109047 86.6129998,6.12500168 87.0153456,5.7890625 C87.4176913,5.45312332 87.9547953,5.28515625 88.6266737,5.28515625 C89.2985521,5.28515625 89.9508893,5.45312332 90.5837049,5.7890625 C91.2165206,6.12500168 91.5329237,6.57030973 91.5329237,7.125 C91.5329237,7.51562695 91.3981594,7.83788936 91.1286268,8.09179688 C90.8590942,8.34570439 90.5680815,8.47265625 90.2555799,8.47265625 C90.1383919,8.47265625 89.8551916,8.40039135 89.4059706,8.25585938 C88.9567496,8.1113274 88.5602692,8.0390625 88.2165174,8.0390625 C87.7477651,8.0390625 87.3649564,8.16210814 87.0680799,8.40820312 C86.7712035,8.65429811 86.540737,9.01952883 86.3766737,9.50390625 C86.2126104,9.98828367 86.0993303,10.5644498 86.0368299,11.2324219 C85.9743296,11.900394 85.9430799,12.7148389 85.9430799,13.6757812 Z M100.566406,16.4648438 L100.566406,16.1484375 C100.136716,16.6406275 99.7128922,17.0410141 99.2949214,17.3496094 C98.8769506,17.6582047 98.4238301,17.8925773 97.9355464,18.0527344 C97.4472627,18.2128914 96.9140649,18.2929688 96.335937,18.2929688 C95.5703082,18.2929688 94.8613309,18.130861 94.2089839,17.8066406 C93.5566369,17.4824203 92.9921894,17.0195343 92.5156245,16.4179688 C92.0390596,15.8164032 91.6777351,15.1093791 91.4316401,14.296875 C91.1855452,13.4843709 91.0624995,12.6054735 91.0624995,11.6601562 C91.0624995,9.66014625 91.5507759,8.10156809 92.5273433,6.984375 C93.5039107,5.86718191 94.7890541,5.30859375 96.382812,5.30859375 C97.3046916,5.30859375 98.0820276,5.46679529 98.7148433,5.78320312 C99.3476589,6.09961096 99.9648403,6.58593422 100.566406,7.2421875 L100.566406,2.51953125 C100.566406,1.86327797 100.697264,1.36718918 100.958984,1.03125 C101.220704,0.69531082 101.593747,0.52734375 102.078125,0.52734375 C102.562502,0.52734375 102.935545,0.681639082 103.197265,0.990234375 C103.458985,1.29882967 103.589843,1.75390324 103.589843,2.35546875 L103.589843,16.4648438 C103.589843,17.0742218 103.44922,17.5312485 103.167968,17.8359375 C102.886717,18.1406265 102.523439,18.2929688 102.078125,18.2929688 C101.640622,18.2929688 101.279298,18.1347672 100.99414,17.8183594 C100.708982,17.5019515 100.566406,17.0507842 100.566406,16.4648438 Z M94.273437,11.765625 C94.273437,12.6328168 94.4082013,13.3710907 94.6777339,13.9804688 C94.9472665,14.5898468 95.3164034,15.0488266 95.7851558,15.3574219 C96.2539081,15.6660172 96.7656217,15.8203125 97.320312,15.8203125 C97.8828148,15.8203125 98.3964816,15.6738296 98.8613276,15.3808594 C99.3261737,15.0878892 99.6972638,14.6386749 99.9746089,14.0332031 C100.251954,13.4277313 100.390625,12.6718795 100.390625,11.765625 C100.390625,10.9140582 100.251954,10.1816437 99.9746089,9.56835938 C99.6972638,8.95507506 99.3222675,8.48632975 98.8496089,8.16210938 C98.3769503,7.837889 97.8593773,7.67578125 97.2968745,7.67578125 C96.7109341,7.67578125 96.1875018,7.84179521 95.726562,8.17382812 C95.2656222,8.50586104 94.9082039,8.98241877 94.6542964,9.60351562 C94.4003889,10.2246125 94.273437,10.9453084 94.273437,11.765625 Z M13.9296875,36.84375 C13.9296875,37.8828177 13.6621121,38.8164021 13.1269531,39.6445312 C12.5917942,40.4726604 11.8085989,41.1210914 10.7773438,41.5898438 C9.74608859,42.0585961 8.52344457,42.2929688 7.109375,42.2929688 C5.41405402,42.2929688 4.01563051,41.9726595 2.9140625,41.3320312 C2.13280859,40.8710914 1.49804932,40.2558632 1.00976562,39.4863281 C0.521481934,38.716793 0.27734375,37.9687536 0.27734375,37.2421875 C0.27734375,36.8203104 0.42382666,36.4589859 0.716796875,36.1582031 C1.00976709,35.8574204 1.38281023,35.7070312 1.8359375,35.7070312 C2.20312684,35.7070312 2.51367061,35.8242176 2.76757812,36.0585938 C3.02148564,36.2929699 3.23828035,36.6406227 3.41796875,37.1015625 C3.63671984,37.6484402 3.87304561,38.1054669 4.12695312,38.4726562 C4.38086064,38.8398456 4.73827895,39.1425769 5.19921875,39.3808594 C5.66015855,39.6191418 6.26562125,39.7382812 7.015625,39.7382812 C8.04688016,39.7382812 8.8847624,39.4980493 9.52929688,39.0175781 C10.1738313,38.537107 10.4960938,37.9375036 10.4960938,37.21875 C10.4960938,36.6484346 10.3222674,36.1855487 9.97460938,35.8300781 C9.62695139,35.4746076 9.17773713,35.2031259 8.62695312,35.015625 C8.07616912,34.8281241 7.33984836,34.6289073 6.41796875,34.4179688 C5.18358758,34.1289048 4.15039479,33.7910176 3.31835938,33.4042969 C2.48632396,33.0175762 1.82617432,32.4902377 1.33789062,31.8222656 C0.849606934,31.1542935 0.60546875,30.3242237 0.60546875,29.3320312 C0.60546875,28.386714 0.863278672,27.5468787 1.37890625,26.8125 C1.89453383,26.0781213 2.64062012,25.5136738 3.6171875,25.1191406 C4.59375488,24.7246074 5.7421809,24.5273438 7.0625,24.5273438 C8.11719277,24.5273438 9.02929303,24.6582018 9.79882812,24.9199219 C10.5683632,25.1816419 11.2070287,25.5292947 11.7148438,25.9628906 C12.2226588,26.3964865 12.5937488,26.8515601 12.828125,27.328125 C13.0625012,27.8046899 13.1796875,28.269529 13.1796875,28.7226562 C13.1796875,29.1367208 13.0332046,29.509764 12.7402344,29.8417969 C12.4472642,30.1738298 12.0820334,30.3398438 11.6445312,30.3398438 C11.2460918,30.3398438 10.9433604,30.2402354 10.7363281,30.0410156 C10.5292958,29.8417959 10.3046887,29.5156273 10.0625,29.0625 C9.74999844,28.4140593 9.37500219,27.9082049 8.9375,27.5449219 C8.49999781,27.1816388 7.79687984,27 6.828125,27 C5.92968301,27 5.20508088,27.1972637 4.65429688,27.5917969 C4.10351287,27.9863301 3.828125,28.4609347 3.828125,29.015625 C3.828125,29.3593767 3.92187406,29.6562488 4.109375,29.90625 C4.29687594,30.1562512 4.55468586,30.3710929 4.8828125,30.5507812 C5.21093914,30.7304696 5.54296707,30.8710932 5.87890625,30.9726562 C6.21484543,31.0742193 6.76952738,31.2226553 7.54296875,31.4179688 C8.51172359,31.6445324 9.38866795,31.8945299 10.1738281,32.1679688 C10.9589883,32.4414076 11.6269504,32.7734355 12.1777344,33.1640625 C12.7285184,33.5546895 13.1582016,34.0488251 13.4667969,34.6464844 C13.7753922,35.2441436 13.9296875,35.9765582 13.9296875,36.84375 Z M19.0022321,31.1015625 L19.0022321,40.3476562 C19.0022321,40.9882845 18.8498898,41.4726546 18.5452008,41.8007812 C18.2405118,42.1289079 17.8537969,42.2929688 17.3850446,42.2929688 C16.9162922,42.2929688 16.5354367,42.1250017 16.2424664,41.7890625 C15.9494962,41.4531233 15.8030133,40.9726594 15.8030133,40.3476562 L15.8030133,31.1953125 C15.8030133,30.5624968 15.9494962,30.0859391 16.2424664,29.765625 C16.5354367,29.4453109 16.9162922,29.2851562 17.3850446,29.2851562 C17.8537969,29.2851562 18.2405118,29.4453109 18.5452008,29.765625 C18.8498898,30.0859391 19.0022321,30.5312471 19.0022321,31.1015625 Z M17.4202008,27.796875 C16.9748861,27.796875 16.5940305,27.6601576 16.2776227,27.3867188 C15.9612149,27.1132799 15.8030133,26.726565 15.8030133,26.2265625 C15.8030133,25.7734352 15.9651211,25.4003921 16.2893414,25.1074219 C16.6135618,24.8144517 16.9905112,24.6679688 17.4202008,24.6679688 C17.8342654,24.6679688 18.2014492,24.8007799 18.5217633,25.0664062 C18.8420774,25.3320326 19.0022321,25.7187475 19.0022321,26.2265625 C19.0022321,26.7187525 18.8459836,27.1035142 18.5334821,27.3808594 C18.2209805,27.6582045 17.8498905,27.796875 17.4202008,27.796875 Z M32.0904016,36.0234375 L32.0904016,40.2773438 C32.0904016,40.9492221 31.9380594,41.4531233 31.6333704,41.7890625 C31.3286814,42.1250017 30.9263416,42.2929688 30.4263391,42.2929688 C29.9419617,42.2929688 29.5493875,42.1250017 29.2486048,41.7890625 C28.947822,41.4531233 28.7974329,40.9492221 28.7974329,40.2773438 L28.7974329,35.1796875 C28.7974329,34.374996 28.7700894,33.7500022 28.7154016,33.3046875 C28.6607139,32.8593728 28.5122779,32.4941421 28.2700891,32.2089844 C28.0279004,31.9238267 27.6450918,31.78125 27.1216516,31.78125 C26.0747714,31.78125 25.3853252,32.1406214 25.0532923,32.859375 C24.7212594,33.5781286 24.5552454,34.6093683 24.5552454,35.953125 L24.5552454,40.2773438 C24.5552454,40.9414096 24.4048563,41.4433577 24.1040735,41.7832031 C23.8032908,42.1230486 23.4068104,42.2929688 22.9146204,42.2929688 C22.430243,42.2929688 22.0337626,42.1230486 21.7251673,41.7832031 C21.416572,41.4433577 21.2622766,40.9414096 21.2622766,40.2773438 L21.2622766,31.125 C21.2622766,30.5234345 21.4009471,30.0664078 21.6782923,29.7539062 C21.9556374,29.4414047 22.3208681,29.2851562 22.7739954,29.2851562 C23.2114976,29.2851562 23.5767283,29.4316392 23.8696985,29.7246094 C24.1626687,30.0175796 24.3091516,30.4218724 24.3091516,30.9375 L24.3091516,31.2421875 C24.8638419,30.5781217 25.457586,30.0898453 26.0904016,29.7773438 C26.7232173,29.4648422 27.4263353,29.3085938 28.1997766,29.3085938 C29.0044682,29.3085938 29.6958675,29.4687484 30.2739954,29.7890625 C30.8521233,30.1093766 31.328681,30.5937468 31.7036829,31.2421875 C32.2427481,30.5859342 32.8208673,30.099611 33.4380579,29.7832031 C34.0552485,29.4667953 34.7388354,29.3085938 35.4888391,29.3085938 C36.3638435,29.3085938 37.1177422,29.480467 37.7505579,29.8242188 C38.3833736,30.1679705 38.8560251,30.660153 39.1685266,31.3007812 C39.4419655,31.8789091 39.5786829,32.7890563 39.5786829,34.03125 L39.5786829,40.2773438 C39.5786829,40.9492221 39.4263407,41.4531233 39.1216516,41.7890625 C38.8169626,42.1250017 38.4146229,42.2929688 37.9146204,42.2929688 C37.430243,42.2929688 37.0337626,42.1230486 36.7251673,41.7832031 C36.416572,41.4433577 36.2622766,40.9414096 36.2622766,40.2773438 L36.2622766,34.8984375 C36.2622766,34.2109341 36.2329801,33.6601583 36.174386,33.2460938 C36.115792,32.8320292 35.9575904,32.4843764 35.6997766,32.203125 C35.4419629,31.9218736 35.0513418,31.78125 34.5279016,31.78125 C34.1060245,31.78125 33.7056379,31.9062488 33.3267298,32.15625 C32.9478216,32.4062512 32.6529027,32.7421854 32.4419641,33.1640625 C32.207588,33.7031277 32.0904016,34.6562432 32.0904016,36.0234375 Z M49.8191962,40.4882812 L49.8191962,40.078125 C49.4363818,40.5625024 49.0340421,40.9687484 48.612165,41.296875 C48.1902879,41.6250016 47.729355,41.8691398 47.2293525,42.0292969 C46.72935,42.1894539 46.1590432,42.2695312 45.518415,42.2695312 C44.7449736,42.2695312 44.0516212,42.1093766 43.4383368,41.7890625 C42.8250525,41.4687484 42.3504479,41.0273466 42.0145087,40.4648438 C41.6160692,39.7851529 41.4168525,38.8086001 41.4168525,37.5351562 L41.4168525,31.1953125 C41.4168525,30.5546843 41.5613823,30.0761735 41.8504462,29.7597656 C42.1395102,29.4433578 42.5223188,29.2851562 42.9988837,29.2851562 C43.4832611,29.2851562 43.8738822,29.4453109 44.1707587,29.765625 C44.4676352,30.0859391 44.6160712,30.5624968 44.6160712,31.1953125 L44.6160712,36.3164062 C44.6160712,37.0585975 44.6785706,37.6816381 44.8035712,38.1855469 C44.9285718,38.6894556 45.153179,39.0839829 45.4773993,39.3691406 C45.8016197,39.6542983 46.2410685,39.796875 46.7957587,39.796875 C47.3348239,39.796875 47.8426313,39.6367204 48.3191962,39.3164062 C48.7957611,38.9960921 49.1434139,38.5781276 49.362165,38.0625 C49.5418534,37.6093727 49.6316962,36.6171952 49.6316962,35.0859375 L49.6316962,31.1953125 C49.6316962,30.5624968 49.7801322,30.0859391 50.0770087,29.765625 C50.3738852,29.4453109 50.7606001,29.2851562 51.237165,29.2851562 C51.7137299,29.2851562 52.0965385,29.4433578 52.3856025,29.7597656 C52.6746664,30.0761735 52.8191962,30.5546843 52.8191962,31.1953125 L52.8191962,40.4648438 C52.8191962,41.0742218 52.6805257,41.5312485 52.4031806,41.8359375 C52.1258355,42.1406265 51.7684172,42.2929688 51.330915,42.2929688 C50.8934128,42.2929688 50.5320883,42.1347672 50.2469306,41.8183594 C49.9617729,41.5019515 49.8191962,41.0585966 49.8191962,40.4882812 Z M55.1495533,40.3476562 L55.1495533,26.4726562 C55.1495533,25.832028 55.29213,25.3476579 55.5772877,25.0195312 C55.8624453,24.6914046 56.2472071,24.5273438 56.7315845,24.5273438 C57.215962,24.5273438 57.6065831,24.6894515 57.9034595,25.0136719 C58.200336,25.3378922 58.348772,25.8242155 58.348772,26.4726562 L58.348772,40.3476562 C58.348772,40.996097 58.1983829,41.4824203 57.8976002,41.8066406 C57.5968174,42.130861 57.2081494,42.2929688 56.7315845,42.2929688 C56.2628322,42.2929688 55.8819766,42.1250017 55.5890064,41.7890625 C55.2960362,41.4531233 55.1495533,40.9726594 55.1495533,40.3476562 Z M68.8822541,40.4882812 C68.1088128,41.0898468 67.3607734,41.5410141 66.6381135,41.8417969 C65.9154536,42.1425796 65.1049149,42.2929688 64.2064729,42.2929688 C63.3861563,42.2929688 62.6654604,42.130861 62.0443635,41.8066406 C61.4232666,41.4824203 60.9447558,41.0429715 60.6088166,40.4882812 C60.2728774,39.933591 60.1049104,39.3320345 60.1049104,38.6835938 C60.1049104,37.8085894 60.3822514,37.0625031 60.9369416,36.4453125 C61.4916319,35.8281219 62.253343,35.4140636 63.2220979,35.203125 C63.4252239,35.1562498 63.9291251,35.0507821 64.7338166,34.8867188 C65.5385081,34.7226554 66.2279544,34.5722663 66.802176,34.4355469 C67.3763976,34.2988274 67.9994383,34.1328135 68.6713166,33.9375 C68.6322539,33.0937458 68.4623338,32.4746113 68.161551,32.0800781 C67.8607682,31.6855449 67.2377276,31.4882812 66.2924104,31.4882812 C65.4799063,31.4882812 64.8685843,31.6015614 64.458426,31.828125 C64.0482677,32.0546886 63.6967087,32.394529 63.4037385,32.8476562 C63.1107683,33.3007835 62.9037391,33.5996087 62.7826447,33.7441406 C62.6615504,33.8886726 62.4017874,33.9609375 62.0033479,33.9609375 C61.6439711,33.9609375 61.3334273,33.8457043 61.0717072,33.6152344 C60.8099872,33.3847645 60.6791291,33.0898455 60.6791291,32.7304688 C60.6791291,32.1679659 60.8783459,31.6210964 61.2767854,31.0898438 C61.6752249,30.5585911 62.2963124,30.1210955 63.1400666,29.7773438 C63.9838208,29.433592 65.0345916,29.2617188 66.2924104,29.2617188 C67.6986674,29.2617188 68.8041251,29.4277327 69.6088166,29.7597656 C70.4135081,30.0917985 70.9818618,30.6171839 71.3138947,31.3359375 C71.6459277,32.0546911 71.8119416,33.0078066 71.8119416,34.1953125 C71.8119416,34.9453162 71.8099885,35.5820286 71.8060822,36.1054688 C71.802176,36.6289089 71.7963167,37.2109343 71.7885041,37.8515625 C71.7885041,38.453128 71.8881125,39.0800749 72.0873322,39.7324219 C72.286552,40.3847689 72.3861604,40.8046866 72.3861604,40.9921875 C72.3861604,41.3203141 72.231865,41.6191393 71.9232697,41.8886719 C71.6146745,42.1582045 71.2650686,42.2929688 70.8744416,42.2929688 C70.546315,42.2929688 70.2220995,42.1386734 69.9017854,41.8300781 C69.5814713,41.5214828 69.2416309,41.0742217 68.8822541,40.4882812 Z M68.6713166,35.859375 C68.2025643,36.0312509 67.5209305,36.2128897 66.6263947,36.4042969 C65.731859,36.5957041 65.1127246,36.7363277 64.7689729,36.8261719 C64.4252212,36.9160161 64.0970994,37.0917956 63.7845979,37.3535156 C63.4720963,37.6152357 63.3158479,37.9804664 63.3158479,38.4492188 C63.3158479,38.9335962 63.4994398,39.3457014 63.8666291,39.6855469 C64.2338185,40.0253923 64.7142824,40.1953125 65.3080354,40.1953125 C65.940851,40.1953125 66.5248296,40.056642 67.0599885,39.7792969 C67.5951474,39.5019517 67.9877216,39.1445334 68.2377229,38.7070312 C68.5267868,38.2226538 68.6713166,37.4257868 68.6713166,36.3164062 L68.6713166,35.859375 Z M73.7790174,29.5664062 L74.1305799,29.5664062 L74.1305799,27.6445312 C74.1305799,27.1289037 74.1442517,26.7246108 74.1715956,26.4316406 C74.1989395,26.1386704 74.2751106,25.8867198 74.4001112,25.6757812 C74.5251118,25.4570302 74.7047975,25.2792976 74.9391737,25.1425781 C75.1735499,25.0058587 75.435266,24.9375 75.7243299,24.9375 C76.130582,24.9375 76.4977658,25.0898422 76.8258924,25.3945312 C77.0446435,25.5976573 77.183314,25.8457017 77.2419081,26.1386719 C77.3005021,26.4316421 77.3297987,26.8476536 77.3297987,27.3867188 L77.3297987,29.5664062 L78.5016737,29.5664062 C78.954801,29.5664062 79.3005006,29.6738271 79.5387831,29.8886719 C79.7770655,30.1035167 79.8962049,30.3789046 79.8962049,30.7148438 C79.8962049,31.1445334 79.7262848,31.4453116 79.3864393,31.6171875 C79.0465939,31.7890634 78.5602706,31.875 77.9274549,31.875 L77.3297987,31.875 L77.3297987,37.7578125 C77.3297987,38.257815 77.3473766,38.6425768 77.3825331,38.9121094 C77.4176895,39.181642 77.5114386,39.4003898 77.6637831,39.5683594 C77.8161276,39.736329 78.064172,39.8203125 78.4079237,39.8203125 C78.5954246,39.8203125 78.8493283,39.7871097 79.1696424,39.7207031 C79.4899565,39.6542965 79.739954,39.6210938 79.9196424,39.6210938 C80.1774562,39.6210938 80.4098758,39.7246083 80.6169081,39.9316406 C80.8239404,40.1386729 80.9274549,40.3945297 80.9274549,40.6992188 C80.9274549,41.2148463 80.6462078,41.6093736 80.0837049,41.8828125 C79.5212021,42.1562514 78.7126165,42.2929688 77.6579237,42.2929688 C76.6579187,42.2929688 75.9001138,42.1250017 75.3844862,41.7890625 C74.8688586,41.4531233 74.5309714,40.9882842 74.3708143,40.3945312 C74.2106573,39.8007783 74.1305799,39.0078175 74.1305799,38.015625 L74.1305799,31.875 L73.7087049,31.875 C73.2477651,31.875 72.8962062,31.7656261 72.6540174,31.546875 C72.4118287,31.3281239 72.2907362,31.0507829 72.2907362,30.7148438 C72.2907362,30.3789046 72.4176881,30.1035167 72.6715956,29.8886719 C72.9255031,29.6738271 73.29464,29.5664062 73.7790174,29.5664062 Z M93.2187495,35.7890625 C93.2187495,36.7421923 93.0703135,37.6210897 92.773437,38.4257812 C92.4765605,39.2304728 92.0468773,39.9218721 91.4843745,40.5 C90.9218717,41.0781279 90.2500034,41.5214828 89.4687495,41.8300781 C88.6874956,42.1386734 87.8085982,42.2929688 86.8320308,42.2929688 C85.8632759,42.2929688 84.9921909,42.1367203 84.2187495,41.8242188 C83.4453082,41.5117172 82.775393,41.064456 82.2089839,40.4824219 C81.6425748,39.9003877 81.2128916,39.2128946 80.9199214,38.4199219 C80.6269512,37.6269492 80.4804683,36.7500048 80.4804683,35.7890625 C80.4804683,34.8203077 80.6289043,33.9335978 80.9257808,33.1289062 C81.2226573,32.3242147 81.6484342,31.6367216 82.2031245,31.0664062 C82.7578148,30.4960909 83.4296831,30.0566422 84.2187495,29.7480469 C85.007816,29.4394516 85.878901,29.2851562 86.8320308,29.2851562 C87.8007856,29.2851562 88.6796831,29.4414047 89.4687495,29.7539062 C90.257816,30.0664078 90.9335905,30.5117159 91.4960933,31.0898438 C92.0585961,31.6679716 92.4863262,32.3554648 92.7792964,33.1523438 C93.0722666,33.9492227 93.2187495,34.8281202 93.2187495,35.7890625 Z M90.007812,35.7890625 C90.007812,34.4843685 89.7207055,33.4687536 89.1464839,32.7421875 C88.5722623,32.0156214 87.8007856,31.6523438 86.8320308,31.6523438 C86.2070276,31.6523438 85.6562519,31.8144515 85.179687,32.1386719 C84.7031221,32.4628922 84.3359383,32.9414031 84.0781245,33.5742188 C83.8203107,34.2070344 83.6914058,34.9453083 83.6914058,35.7890625 C83.6914058,36.6250042 83.8183576,37.3554656 84.0722651,37.9804688 C84.3261727,38.6054719 84.6894503,39.0839827 85.1621089,39.4160156 C85.6347675,39.7480485 86.1914026,39.9140625 86.8320308,39.9140625 C87.8007856,39.9140625 88.5722623,39.5488318 89.1464839,38.8183594 C89.7207055,38.087887 90.007812,37.0781314 90.007812,35.7890625 Z M98.0569191,37.6757812 L98.0569191,40.3476562 C98.0569191,40.996097 97.9045769,41.4824203 97.5998878,41.8066406 C97.2951988,42.130861 96.9084839,42.2929688 96.4397316,42.2929688 C95.9787918,42.2929688 95.5998893,42.1289079 95.3030128,41.8007812 C95.0061364,41.4726546 94.8577003,40.9882845 94.8577003,40.3476562 L94.8577003,31.4414062 C94.8577003,30.0038991 95.3772264,29.2851562 96.4162941,29.2851562 C96.9475468,29.2851562 97.3303554,29.4531233 97.5647316,29.7890625 C97.7991078,30.1250017 97.9280127,30.6210905 97.9514503,31.2773438 C98.3342648,30.6210905 98.726839,30.1250017 99.1291847,29.7890625 C99.5315305,29.4531233 100.068634,29.2851562 100.740513,29.2851562 C101.412391,29.2851562 102.064728,29.4531233 102.697544,29.7890625 C103.33036,30.1250017 103.646763,30.5703097 103.646763,31.125 C103.646763,31.515627 103.511999,31.8378894 103.242466,32.0917969 C102.972933,32.3457044 102.681921,32.4726562 102.369419,32.4726562 C102.252231,32.4726562 101.969031,32.4003913 101.51981,32.2558594 C101.070589,32.1113274 100.674108,32.0390625 100.330357,32.0390625 C99.8616043,32.0390625 99.4787956,32.1621081 99.1819191,32.4082031 C98.8850426,32.6542981 98.6545762,33.0195288 98.4905128,33.5039062 C98.3264495,33.9882837 98.2131694,34.5644498 98.1506691,35.2324219 C98.0881688,35.900394 98.0569191,36.7148389 98.0569191,37.6757812 Z" fill="#FFFFFF" fill-rule="nonzero"></path>
    </g>
</svg>
